<svg height="512pt" viewBox="-43 0 512 512" width="512pt" xmlns="http://www.w3.org/2000/svg"><path d="m368 512h-309.332031c-32.363281 0-58.667969-26.304688-58.667969-58.667969v-394.664062c0-32.363281 26.304688-58.667969 58.667969-58.667969h309.332031c32.363281 0 58.667969 26.304688 58.667969 58.667969v394.664062c0 32.363281-26.304688 58.667969-58.667969 58.667969zm-309.332031-480c-14.699219 0-26.667969 11.96875-26.667969 26.667969v394.664062c0 14.699219 11.96875 26.667969 26.667969 26.667969h309.332031c14.699219 0 26.667969-11.96875 26.667969-26.667969v-394.664062c0-14.699219-11.96875-26.667969-26.667969-26.667969zm0 0"/><path d="m346.667969 426.667969h-32c-20.589844 0-37.335938-16.746094-37.335938-37.335938v-53.332031c0-20.585938 16.746094-37.332031 37.335938-37.332031h32c8.832031 0 16 7.167969 16 16s-7.167969 16-16 16h-32c-2.945313 0-5.335938 2.386719-5.335938 5.332031v53.332031c0 2.945313 2.390625 5.335938 5.335938 5.335938h16v-6.230469c-6.230469-2.21875-10.667969-8.128906-10.667969-15.105469 0-8.832031 7.167969-16 16-16h10.667969c8.832031 0 16 7.167969 16 16v37.335938c0 8.832031-7.167969 16-16 16zm0 0"/><path d="m213.332031 426.667969c-7.1875 0-13.480469-4.800781-15.421875-11.714844l-26.667968-96c-2.367188-8.511719 2.625-17.320313 11.136718-19.6875 8.449219-2.390625 17.324219 2.621094 19.691406 11.132813l11.261719 40.492187 11.242188-40.492187c2.347656-8.511719 11.179687-13.523438 19.691406-11.132813 8.511719 2.367187 13.503906 11.175781 11.136719 19.6875l-26.667969 96c-1.917969 6.914063-8.210937 11.714844-15.402344 11.714844zm0 0"/><path d="m106.667969 426.667969h-26.667969c-8.832031 0-16-7.167969-16-16s7.167969-16 16-16h26.667969c5.3125 0 10.664062-2.753907 10.664062-8.898438 0-6.183593-6.675781-7.101562-10.664062-7.101562-24.726563 0-42.667969-16.683594-42.667969-39.660157 0-22.976562 18.347656-40.339843 42.667969-40.339843h26.664062c8.832031 0 16 7.167969 16 16s-7.167969 16-16 16h-26.664062c-1.773438 0-10.667969.402343-10.667969 8.339843 0 7.105469 8.171875 7.660157 10.667969 7.660157 24.722656 0 42.664062 16.445312 42.664062 39.101562 0 22.933594-18.730469 40.898438-42.664062 40.898438zm0 0"/></svg>